<?xml version="1.0" standalone="no"?>
<!DOCTYPE svg PUBLIC "-//W3C//DTD SVG 20010904//EN"
 "http://www.w3.org/TR/2001/REC-SVG-20010904/DTD/svg10.dtd">
<svg version="1.0" xmlns="http://www.w3.org/2000/svg"
 width="1072.000000pt" height="1072.000000pt" viewBox="0 0 1072.000000 1072.000000"
 preserveAspectRatio="xMidYMid meet">
<metadata>
Created by potrace 1.11, written by Peter Selinger 2001-2013
</metadata>
<g transform="translate(0.000000,1072.000000) scale(0.100000,-0.100000)"
fill="#000000" stroke="none">
<path d="M6486 9373 c-2 -3 -28 -6 -58 -8 -29 -2 -64 -6 -78 -9 -14 -4 -43 -8
-65 -11 -23 -2 -61 -9 -85 -15 -25 -6 -58 -12 -75 -15 -16 -2 -39 -6 -50 -9
-11 -3 -36 -10 -55 -15 -82 -21 -245 -76 -251 -84 -3 -5 -9 -8 -13 -7 -17 5
-244 -96 -257 -113 -3 -5 -8 -7 -10 -6 -8 6 -195 -104 -289 -170 -52 -36 -131
-94 -175 -130 -106 -85 -348 -331 -405 -409 -44 -61 -46 -63 -85 -58 -22 2
-51 7 -65 11 -14 4 -34 8 -45 9 -11 2 -20 4 -20 5 0 1 -20 4 -44 7 -25 2 -56
7 -70 9 -119 23 -439 23 -576 0 -16 -3 -44 -6 -60 -8 -17 -2 -36 -7 -43 -11
-7 -4 -12 -5 -12 -3 0 3 -17 1 -37 -4 -21 -5 -54 -12 -73 -15 -28 -5 -131 -35
-265 -78 -19 -6 -50 -18 -82 -32 -17 -8 -34 -14 -38 -14 -24 0 -248 -122 -409
-223 -11 -7 -31 -22 -45 -34 -14 -13 -31 -23 -38 -23 -7 0 -13 -4 -13 -8 0 -4
-21 -24 -47 -43 -76 -57 -226 -202 -313 -304 -44 -51 -80 -96 -80 -99 0 -3 -8
-15 -17 -25 -34 -37 -106 -144 -156 -231 -73 -128 -187 -386 -187 -425 0 -8
-5 -15 -12 -15 -6 0 -9 -2 -6 -6 3 -3 -1 -26 -9 -52 -18 -57 -24 -82 -27 -102
-1 -9 -6 -21 -10 -28 -4 -7 -6 -16 -3 -19 3 -3 2 -16 -4 -30 -5 -13 -11 -39
-14 -56 -8 -55 -13 -91 -19 -122 -16 -89 -25 -332 -14 -390 l6 -31 -102 -34
c-107 -36 -277 -108 -287 -123 -3 -5 -9 -8 -13 -8 -5 1 -64 -28 -154 -78 -15
-8 -35 -22 -46 -33 -11 -10 -24 -18 -29 -18 -10 0 -101 -64 -126 -88 -8 -7
-25 -21 -40 -30 -68 -45 -276 -248 -354 -346 -34 -43 -67 -83 -72 -90 -42 -46
-228 -350 -230 -376 -1 -3 -9 -21 -20 -40 -10 -19 -20 -39 -21 -45 -1 -5 -7
-23 -14 -40 -6 -16 -11 -31 -11 -33 1 -1 -6 -16 -15 -34 -21 -40 -79 -222 -75
-235 0 -2 -6 -21 -14 -43 -8 -22 -12 -40 -10 -40 2 0 -1 -15 -6 -32 -5 -18
-12 -53 -15 -78 -3 -25 -8 -54 -10 -65 -14 -71 -19 -163 -18 -330 0 -189 6
-281 28 -395 3 -19 8 -46 10 -60 14 -76 53 -218 86 -315 33 -93 40 -110 97
-235 19 -41 35 -77 35 -80 0 -3 5 -12 12 -20 8 -8 28 -43 47 -77 18 -35 36
-63 41 -63 4 0 8 -5 8 -11 0 -12 60 -103 72 -107 4 -2 8 -8 8 -14 0 -20 128
-168 257 -296 73 -73 133 -130 133 -126 0 3 7 -2 16 -10 9 -9 32 -29 52 -44
21 -15 39 -30 42 -33 9 -11 204 -137 233 -150 15 -7 27 -16 27 -21 0 -4 5 -8
11 -8 6 0 56 -22 112 -49 88 -42 124 -58 147 -66 3 -1 12 -5 20 -8 103 -42
344 -109 445 -122 17 -3 46 -7 65 -10 19 -3 67 -9 105 -13 94 -9 6079 -9 6175
0 112 12 144 16 207 28 32 6 70 13 84 15 14 2 61 13 105 25 43 11 88 23 99 25
33 7 222 73 283 99 56 24 213 99 242 116 143 84 242 145 251 156 6 8 16 14 20
14 10 0 176 130 238 185 54 48 171 166 229 231 69 77 222 279 222 293 0 6 4
11 8 11 5 0 16 15 25 32 10 18 31 56 49 83 28 46 138 258 138 268 0 3 11 30
25 61 14 31 24 57 24 59 0 1 11 34 26 72 41 109 92 297 110 405 3 19 8 46 10
60 19 93 30 253 29 440 0 203 -10 326 -35 449 -6 30 -12 64 -14 75 -1 12 -8
41 -14 66 -6 25 -14 56 -17 70 -12 61 -94 297 -131 380 -58 127 -140 283 -184
347 -16 23 -29 46 -29 52 0 6 -3 11 -8 11 -4 0 -16 16 -26 35 -11 19 -23 35
-28 35 -4 0 -8 7 -8 15 0 8 -4 15 -9 15 -5 0 -12 8 -15 18 -3 9 -18 31 -33 47
-16 17 -46 53 -67 80 -60 75 -271 283 -356 351 -41 32 -77 61 -80 65 -3 3 -27
21 -55 39 -27 19 -51 37 -53 42 -2 4 -9 8 -16 8 -7 0 -21 9 -31 20 -10 11 -22
20 -27 20 -5 0 -27 12 -51 27 -23 15 -51 33 -62 39 -11 6 -19 15 -18 21 1 5 4
29 7 54 3 24 9 69 13 99 10 71 10 353 0 450 -7 75 -9 91 -28 205 -32 199 -114
461 -203 650 -25 53 -46 99 -46 102 0 3 -10 19 -22 36 -13 18 -21 32 -19 32 7
0 -37 72 -113 189 -156 236 -296 391 -542 603 -12 10 -34 28 -50 40 -16 12
-50 37 -77 57 -26 20 -51 36 -56 36 -5 0 -11 4 -13 8 -4 10 -201 133 -218 137
-3 0 -16 7 -30 15 -27 16 -122 63 -130 65 -3 0 -27 11 -55 24 -178 82 -514
176 -703 197 -26 3 -63 7 -82 10 -46 7 -488 13 -494 7z m2054 -4695 c14 -4 49
-13 78 -19 160 -33 359 -150 489 -289 58 -61 126 -150 116 -150 -3 0 1 -8 10
-17 15 -18 89 -163 82 -163 -2 0 3 -17 11 -37 16 -36 19 -47 30 -107 2 -16 8
-34 11 -39 13 -22 11 -263 -3 -341 -13 -69 -20 -102 -23 -113 -1 -2 -2 -6 -3
-10 -5 -24 -63 -156 -90 -203 -69 -123 -168 -233 -290 -323 -21 -15 -42 -27
-48 -27 -5 0 -10 -3 -10 -8 0 -16 -157 -86 -256 -113 -89 -24 -107 -27 -218
-34 -43 -2 -81 -6 -83 -9 -3 -3 -15 -1 -27 4 -13 4 -29 4 -36 0 -8 -5 -19 -5
-26 1 -7 6 -15 6 -18 1 -3 -5 -25 -6 -48 -2 -24 3 -58 3 -75 -1 -18 -3 -33 -3
-33 2 0 4 -12 4 -27 1 -16 -4 -48 -5 -73 -2 -25 3 -57 3 -71 -1 -15 -4 -32 -3
-40 1 -7 5 -20 5 -28 1 -9 -5 -25 -5 -36 -1 -11 4 -30 4 -41 -1 -12 -4 -25 -5
-28 -2 -7 8 -116 7 -123 -1 -3 -3 -13 -1 -22 4 -10 5 -23 5 -31 0 -9 -5 -19
-5 -26 1 -7 6 -15 6 -18 1 -3 -5 -25 -6 -48 -2 -24 3 -57 3 -75 -1 -17 -3 -37
-3 -44 2 -7 4 -21 3 -30 -2 -12 -6 -20 -5 -25 2 -4 7 -10 7 -15 2 -6 -6 -29
-7 -52 -3 -23 3 -57 3 -74 -1 -18 -3 -33 -3 -33 2 0 4 -12 4 -27 0 -16 -5 -37
-5 -48 -1 -11 4 -34 4 -51 0 -18 -4 -38 -4 -45 1 -7 4 -21 3 -30 -2 -12 -6
-20 -5 -25 2 -4 7 -10 7 -15 2 -6 -6 -29 -7 -52 -3 -23 3 -56 3 -74 -1 -17 -3
-37 -3 -44 2 -7 4 -21 3 -30 -2 -12 -6 -20 -5 -25 2 -4 7 -10 7 -15 2 -6 -6
-29 -7 -52 -3 -23 3 -57 3 -74 -1 -18 -3 -33 -3 -33 2 0 4 -12 4 -27 0 -16 -5
-37 -5 -48 -1 -11 4 -34 4 -51 0 -18 -4 -38 -4 -45 1 -7 4 -21 3 -30 -2 -12
-6 -20 -5 -25 2 -4 7 -10 7 -15 2 -6 -6 -29 -7 -52 -3 -23 3 -56 3 -74 -1 -17
-3 -37 -3 -44 2 -7 4 -21 3 -30 -2 -12 -6 -20 -5 -25 2 -4 7 -10 7 -15 2 -6
-6 -29 -7 -52 -3 -23 3 -57 3 -74 -1 -18 -3 -33 -3 -33 2 0 4 -12 4 -27 0 -16
-5 -37 -5 -48 -1 -11 4 -34 4 -51 0 -18 -4 -38 -4 -45 1 -7 4 -21 3 -30 -2
-12 -6 -20 -5 -25 2 -4 7 -10 7 -15 2 -6 -6 -29 -7 -52 -3 -23 3 -56 3 -74 -1
-17 -3 -37 -3 -44 2 -7 4 -21 3 -30 -2 -12 -6 -20 -5 -25 2 -4 7 -10 7 -15 2
-6 -6 -29 -7 -52 -3 -23 3 -57 3 -74 -1 -18 -3 -33 -3 -33 2 0 4 -12 4 -27 1
-16 -4 -48 -5 -73 -2 -25 3 -57 3 -71 -1 -15 -4 -32 -3 -40 1 -7 5 -20 5 -28
1 -9 -5 -25 -5 -36 -1 -11 4 -30 4 -41 -1 -12 -4 -25 -5 -28 -2 -7 8 -116 7
-123 -1 -3 -3 -13 -1 -22 4 -10 5 -23 5 -31 0 -9 -5 -19 -5 -26 1 -7 6 -15 6
-18 1 -3 -5 -25 -6 -48 -2 -24 3 -57 3 -75 -1 -17 -3 -37 -3 -44 2 -7 4 -21 3
-30 -2 -12 -6 -20 -5 -25 2 -4 7 -10 7 -15 2 -6 -6 -29 -7 -52 -3 -23 3 -57 3
-74 -1 -18 -3 -33 -3 -33 1 0 5 -12 5 -27 1 -14 -4 -47 -4 -72 -1 -26 3 -58 3
-71 -1 -14 -3 -32 -2 -41 2 -8 4 -21 4 -29 -1 -7 -4 -23 -5 -34 0 -12 4 -30 4
-41 0 -11 -4 -29 -4 -40 0 -11 4 -29 4 -39 0 -11 -3 -38 -4 -60 0 -23 3 -55 3
-73 -1 -17 -3 -37 -3 -44 2 -7 4 -21 3 -31 -2 -12 -7 -18 -6 -18 1 0 7 -6 8
-17 1 -9 -5 -26 -6 -37 -1 -12 4 -30 4 -40 0 -11 -3 -38 -4 -60 0 -23 3 -55 3
-73 -1 -17 -3 -37 -3 -44 2 -7 4 -21 3 -30 -2 -12 -6 -20 -5 -24 1 -5 8 -11 8
-19 1 -7 -6 -15 -9 -18 -6 -2 2 -38 5 -79 5 -41 0 -82 0 -91 0 -22 0 -43 0
-63 0 -20 0 -60 0 -82 0 -10 0 -42 0 -71 1 -30 0 -56 -2 -59 -5 -3 -3 -13 -1
-22 4 -10 5 -23 5 -31 0 -9 -5 -19 -5 -26 1 -7 6 -15 6 -18 1 -3 -5 -25 -6
-48 -3 -24 4 -56 4 -73 1 -16 -3 -45 -3 -62 1 -18 4 -33 4 -33 0 0 -4 -19 -5
-42 -3 -44 4 -78 4 -113 2 -25 -1 -117 7 -166 14 -55 9 -206 54 -247 75 -33
16 -63 32 -132 73 -31 17 -58 38 -87 66 -13 12 -26 22 -28 22 -13 0 -123 124
-165 186 -71 104 -117 207 -149 332 -24 98 -28 128 -26 239 3 158 19 256 54
338 96 218 170 321 321 443 83 67 78 63 125 87 22 11 47 25 55 31 15 11 119
51 153 59 9 2 21 6 25 9 4 2 25 7 47 11 22 3 56 10 75 14 42 11 6304 9 6340
-1z"/>
<path d="M2297 4354 c-1 -1 -22 -4 -47 -7 -70 -10 -212 -56 -230 -76 -3 -4
-18 -13 -35 -21 -30 -15 -155 -135 -188 -180 -11 -14 -26 -41 -35 -60 -10 -19
-20 -37 -23 -40 -5 -4 -42 -107 -43 -120 0 -3 -5 -32 -11 -65 -17 -94 -11
-186 20 -292 69 -237 290 -431 535 -469 44 -7 979 -14 992 -7 3 2 -11 52 -31
111 -21 59 -38 109 -37 112 0 3 -6 21 -14 40 -7 19 -13 37 -14 40 -3 12 -50
157 -57 175 -5 11 -42 124 -84 250 -42 127 -79 237 -82 245 -3 8 -7 20 -8 25
-6 24 -108 321 -114 330 -4 7 -90 11 -249 10 -134 0 -244 -1 -245 -1z"/>
<path d="M3471 4352 c-4 -1 79 -262 186 -580 106 -317 195 -584 197 -592 2 -8
9 -26 14 -40 5 -14 11 -29 12 -35 1 -5 6 -20 11 -33 5 -13 9 -30 9 -38 0 -18
-30 -16 351 -18 l326 -1 -14 45 c-8 25 -16 50 -17 55 -2 6 -6 18 -10 27 -4 9
-9 23 -10 32 -1 8 -5 19 -9 22 -4 4 -7 16 -7 26 0 10 -4 26 -10 36 -5 9 -86
249 -180 532 -94 283 -175 526 -181 540 l-9 25 -325 0 c-179 0 -329 -1 -334
-3z"/>
<path d="M4811 4352 c-10 -3 -7 -19 10 -57 15 -36 132 -390 132 -402 0 -7 3
-13 7 -13 4 0 7 -6 7 -12 0 -7 28 -96 63 -198 34 -102 63 -189 65 -195 1 -5 5
-17 8 -25 10 -26 109 -321 111 -333 2 -7 6 -21 10 -32 5 -11 12 -31 17 -45 l9
-25 330 0 c229 0 330 3 330 11 0 6 -8 35 -17 65 -9 30 -16 57 -15 62 1 4 -2 7
-6 7 -4 0 -8 8 -9 18 -1 9 -7 31 -14 47 -7 17 -13 35 -14 40 -2 6 -26 80 -55
165 -29 85 -53 160 -55 165 -2 10 -8 28 -24 70 -18 47 -43 121 -47 140 -2 11
-28 91 -58 178 -30 86 -55 158 -55 160 0 1 -2 9 -5 17 -3 8 -17 53 -32 100
-15 47 -30 87 -32 90 -4 5 -645 7 -661 2z"/>
<path d="M6150 4339 c0 -9 7 -32 15 -51 8 -20 16 -46 19 -59 3 -13 75 -231
161 -484 85 -253 157 -469 159 -480 3 -11 20 -62 38 -113 25 -73 35 -91 47
-86 9 3 21 7 26 8 22 4 132 68 165 96 65 55 130 125 143 152 6 16 15 28 18 28
7 0 54 104 64 143 2 4 3 8 5 10 8 10 26 147 24 192 -2 55 -13 146 -20 156 -3
5 -7 19 -9 31 -6 28 -71 163 -94 192 -22 29 -132 138 -157 156 -51 37 -150 85
-197 96 -91 22 -129 26 -259 28 -133 2 -148 0 -148 -15z"/>
</g>
</svg>
