<?xml version="1.0" standalone="no"?>
<!DOCTYPE svg PUBLIC "-//W3C//DTD SVG 20010904//EN"
 "http://www.w3.org/TR/2001/REC-SVG-20010904/DTD/svg10.dtd">
<svg version="1.0" xmlns="http://www.w3.org/2000/svg"
 width="1500.000000pt" height="1500.000000pt" viewBox="0 0 1500.000000 1500.000000"
 preserveAspectRatio="xMidYMid meet">
<metadata>
Created by potrace 1.11, written by Peter Selinger 2001-2013
</metadata>
<g transform="translate(0.000000,1500.000000) scale(0.100000,-0.100000)"
fill="#000000" stroke="none">
<path d="M7168 14995 c-1 -2 -61 -6 -133 -10 -71 -3 -143 -8 -160 -10 -16 -2
-61 -7 -100 -10 -38 -3 -83 -7 -100 -9 -16 -2 -57 -7 -90 -11 -33 -4 -71 -9
-85 -10 -32 -4 -159 -24 -185 -29 -11 -2 -42 -7 -68 -10 -27 -4 -59 -9 -70
-12 -12 -2 -47 -9 -77 -15 -30 -5 -66 -12 -80 -15 -14 -2 -36 -7 -50 -10 -14
-3 -38 -8 -54 -11 -114 -19 -668 -168 -751 -203 -11 -4 -69 -25 -130 -45 -60
-20 -119 -40 -130 -45 -11 -5 -69 -28 -130 -51 -239 -91 -693 -302 -877 -408
-21 -11 -53 -29 -70 -40 -18 -10 -62 -35 -97 -55 -149 -85 -585 -368 -611
-396 -3 -3 -21 -17 -40 -30 -37 -25 -287 -217 -306 -235 -6 -5 -33 -28 -60
-50 -378 -311 -778 -720 -1085 -1107 -92 -116 -89 -112 -201 -267 -43 -58 -81
-110 -85 -116 -5 -5 -51 -75 -104 -155 -86 -131 -124 -191 -154 -242 -5 -9
-42 -73 -82 -140 -341 -587 -604 -1233 -774 -1900 -39 -157 -83 -357 -108
-503 -6 -33 -13 -70 -15 -82 -3 -11 -8 -43 -12 -70 -3 -26 -8 -57 -10 -68 -11
-62 -42 -307 -50 -400 -4 -44 -8 -93 -10 -110 -12 -121 -19 -337 -19 -615 0
-361 7 -512 31 -735 3 -27 7 -72 10 -100 4 -40 33 -254 49 -360 90 -604 320
-1363 583 -1925 132 -284 282 -567 405 -764 214 -346 371 -568 593 -841 314
-388 780 -852 1129 -1125 22 -17 49 -38 59 -47 59 -49 339 -252 449 -326 463
-311 962 -573 1452 -762 61 -23 119 -46 130 -50 11 -4 25 -9 30 -11 6 -2 87
-30 180 -62 426 -146 973 -274 1400 -327 28 -3 64 -8 80 -10 47 -6 190 -21
284 -30 303 -27 981 -27 1256 0 22 3 68 7 101 10 34 2 77 7 95 9 19 3 61 8 94
11 83 8 378 54 485 75 30 6 66 13 80 16 14 2 57 11 95 20 39 8 79 16 91 18 11
2 101 25 200 50 684 177 1331 444 1944 804 52 30 102 61 110 68 8 6 31 20 50
30 36 20 296 190 317 209 6 5 35 26 63 45 306 210 704 552 1028 884 123 125
123 125 212 226 41 47 77 87 80 90 3 3 28 32 55 65 28 33 52 62 55 65 18 16
143 177 242 310 367 493 668 1022 905 1590 35 85 74 180 85 210 37 101 129
365 133 380 2 8 22 76 45 150 62 203 177 686 194 815 3 21 16 96 22 130 8 43
35 242 40 290 2 28 6 64 9 80 2 17 7 59 10 95 3 36 8 85 10 110 27 290 27 926
0 1240 -2 25 -6 77 -10 115 -3 39 -7 84 -10 100 -2 17 -7 53 -10 80 -7 57 -21
162 -31 220 -3 22 -7 49 -9 60 -11 80 -47 271 -80 425 -3 14 -7 34 -9 45 -17
88 -99 389 -158 580 -66 215 -200 574 -288 771 -331 736 -709 1328 -1239 1939
-111 128 -520 540 -636 641 -172 150 -254 218 -384 319 -929 723 -1990 1210
-3132 1438 -96 20 -192 38 -214 42 -22 3 -67 10 -100 15 -33 5 -71 11 -85 14
-32 6 -101 15 -165 21 -27 3 -70 8 -95 11 -75 9 -111 13 -215 20 -55 3 -111 8
-125 11 -30 5 -807 13 -812 8z"/>
</g>
</svg>
